<svg id="eWSLi8rbaTl1" xmlns="http://www.w3.org/2000/svg" xmlns:xlink="http://www.w3.org/1999/xlink" viewBox="0 0 700 400" shape-rendering="geometricPrecision" text-rendering="geometricPrecision" width="700" height="400"><style><![CDATA[#eWSLi8rbaTl2 {animation: eWSLi8rbaTl2_s_do 12000ms linear infinite normal forwards}@keyframes eWSLi8rbaTl2_s_do { 0% {stroke-dashoffset: 0} 100% {stroke-dashoffset: 300}} #eWSLi8rbaTl4 {animation: eWSLi8rbaTl4_s_do 12000ms linear infinite normal forwards}@keyframes eWSLi8rbaTl4_s_do { 0% {stroke-dashoffset: 0} 100% {stroke-dashoffset: 500}}]]></style><defs><linearGradient id="eWSLi8rbaTl2-stroke" x1="0" y1="0.5" x2="1" y2="0.5" spreadMethod="pad" gradientUnits="objectBoundingBox" gradientTransform="translate(0 0)"><stop id="eWSLi8rbaTl2-stroke-0" offset="0%" stop-color="#67bc00"/><stop id="eWSLi8rbaTl2-stroke-1" offset="49%" stop-color="#d3e456"/><stop id="eWSLi8rbaTl2-stroke-2" offset="100%" stop-color="#e4db56"/></linearGradient><linearGradient id="eWSLi8rbaTl4-stroke" x1="0" y1="0.5" x2="1" y2="0.5" spreadMethod="pad" gradientUnits="objectBoundingBox" gradientTransform="translate(0 0)"><stop id="eWSLi8rbaTl4-stroke-0" offset="0%" stop-color="#67bc00"/><stop id="eWSLi8rbaTl4-stroke-1" offset="48%" stop-color="#d3e456"/><stop id="eWSLi8rbaTl4-stroke-2" offset="100%" stop-color="#e4db56"/></linearGradient></defs><path id="eWSLi8rbaTl2" d="M60.541022,192.774999C21.003392,149.132773,93.618712,74.10143,146.858559,55.491904c25.3958-8.876883,61.369124-18.889738,84.461248-.683004c42.516928,33.522007,12.613092,96.213556-20.419205,126.355089-13.578345,12.390061-44.521289,36.551454-69.610911,27.320018-33.103858-12.180175-16.823018-54.569106-5.568868-73.081053c24.07487-39.600761,95.400244-87.472814,159.641028-71.715053c82.361973,20.202746-34.858651,121.117467,5.568868,152.992112c5.987432,4.720727,20.191563,5.768409,27.844362,5.464007c79.76103-3.172666,61.156692-66.684253,111.37746-71.032049c39.016973-3.377841,25.565954,56.863245,91.886406,71.032049c51.281274,10.955813,113.471303-35.496578,103.024153-72.398049-11.110162-39.243393-64.628714-56.266562-100.239713-19.807016-63.22493,64.731463-24.457648,130.034964-131.796666,180.995126-33.182731,15.753795-73.719869,28.091627-113.23375,30.735022-67.502613,4.515784-159.249621-31.311075-119.730779-89.473065" opacity="0.16" fill="none" stroke="url(#eWSLi8rbaTl2-stroke)" stroke-width="40" stroke-linecap="round" stroke-dasharray="0.01,300"/><path id="eWSLi8rbaTl4" d="M24.64077,109.435733c9.77732-43.169398,95.29382-75.504329,126.227798-37.565028c28.480004,34.929606-79.556979,105.03965-48.263567,133.185096c9.979064,8.975215,99.164752-4.578146,116.018189-5.464007c93.293239-4.903741,184.235846,9.270784,259.880752,51.908037c26.810744,15.111878,73.176735,45.294034,53.832447,73.764048-7.509408,11.051993-27.178976,16.53514-41.766549,20.490012-72.26474,19.591865-195.886634,17.364906-222.754932-49.859033-8.777012-21.959907-7.219284-41.875131,11.137747-60.787039c36.960368-38.077569,109.24079-44.427048,143.862563-82.643059c45.553107-50.282182-10.10387-104.320783-87.245677-99.718067-42.685767,2.546875-79.978052,61.797144-30.628802,76.496056c68.896959,20.521288,142.09535-9.350216,213.473474,30.735022c43.562291,24.464147,12.890189,75.964408,54.760586,100.401071c23.011575,13.43016,92.927235,11.470796,80.748659,45.07803-20.769684,57.314699-107.56676,28.154064-159.641028,20.490012-63.418102-9.333576-87.982399-26.344666-135.509244-55.32304-16.857656-10.278555-35.484888-18.599492-51.048007-30.052018-14.029983-10.324335-24.884098-23.547639-42.694699-30.735022-32.915602-13.282934-81.457256-4.09275-112.305611,8.87901-107.102691,45.03677-54.968135,97.087033,39.91026,113.37808c52.629079,9.03665,163.631469-6.14701,185.91444,89.462991" opacity="0.2" fill="none" stroke="url(#eWSLi8rbaTl4-stroke)" stroke-width="20" stroke-linecap="round" stroke-dasharray="0.01,500"/></svg>